{
  "asset": { "version": "2.0", "generator": "MyEngine sample fixture" },
  "buffers": [
    { "uri": "cube.bin", "byteLength": 624 }
  ],
  "bufferViews": [
    { "buffer": 0, "byteOffset": 0,   "byteLength": 288, "target": 34962 },
    { "buffer": 0, "byteOffset": 288, "byteLength": 192, "target": 34962 },
    { "buffer": 0, "byteOffset": 480, "byteLength": 144, "target": 34963 }
  ],
  "accessors": [
    {
      "bufferView": 0,
      "componentType": 5126,
      "count": 24,
      "type": "VEC3",
      "min": [-0.5, -0.5, -0.5],
      "max": [0.5, 0.5, 0.5]
    },
    {
      "bufferView": 1,
      "componentType": 5126,
      "count": 24,
      "type": "VEC2"
    },
    {
      "bufferView": 2,
      "componentType": 5125,
      "count": 36,
      "type": "SCALAR"
    }
  ],
  "meshes": [
    {
      "name": "cube",
      "primitives": [
        {
          "attributes": { "POSITION": 0, "TEXCOORD_0": 1 },
          "indices": 2,
          "mode": 4
        }
      ]
    }
  ],
  "nodes": [
    { "mesh": 0 }
  ],
  "scenes": [
    { "nodes": [0] }
  ],
  "scene": 0
}
